<?xml version="1.0" encoding="utf-8"?>
<svg version="1.1" id="Layer_1" xmlns="http://www.w3.org/2000/svg" x="0px" y="0px"
     viewBox="0 0 50 42.3" xml:space="preserve">
<style type="text/css">
	.st0{display:none;fill:none;}
	.st1{fill:#FFFFFF;}
</style>
    <rect x="-1.8" y="-5" class="st0" width="53.8" height="53.4"/>
    <path class="st1" d="M16.7,7.9v32.7c0,0.5-0.1,0.9-0.3,1.2c-0.2,0.3-0.6,0.5-1,0.5c-0.3,0-0.6-0.1-0.9-0.2L1.4,35.6
	c-0.4-0.2-0.7-0.5-1-0.9S0,33.8,0,33.4V1.5c0-0.4,0.1-0.7,0.3-0.9c0.2-0.3,0.5-0.4,0.8-0.4c0.3,0,0.7,0.1,1.3,0.4l14.3,7.1
	C16.7,7.8,16.7,7.9,16.7,7.9z M18.5,10.7l14.9,24.2l-14.9-7.4V10.7z M50,7.9c0,0.1-2.4,4-7.2,11.7s-7.6,12.3-8.4,13.6L23.5,15.5
	l9-14.7C32.8,0.3,33.3,0,34,0c0.3,0,0.5,0.1,0.7,0.2l15.1,7.5C49.9,7.7,50,7.8,50,7.9z M50,11.2v29.4c0,0.5-0.1,0.8-0.4,1.1
	c-0.3,0.3-0.6,0.4-1.1,0.4c-0.4,0-0.9-0.1-1.3-0.4l-12.3-6.1L50,11.2z"/>
</svg>
